<svg width="36" height="40" viewBox="0 0 36 40" fill="none" xmlns="http://www.w3.org/2000/svg">
<path d="M10.7 10.125C15.4 10.125 18.425 12.575 18.95 16.35H13.1C12.675 15.675 11.875 15.25 10.725 15.25C8.575 15.25 7.375 16.775 7.375 19.125C7.375 21.875 8.625 23.25 11.35 23.25C12.6 23.25 13.625 22.8 14.45 21.7H10.025V17.775H19.05V23.325C17.825 25.45 15.325 28.125 10.75 28.125C5.175 28.125 1.75 24.4 1.75 19.125C1.75 13.85 5.15 10.125 10.7 10.125ZM16.2969 19.125C16.2969 13.85 19.6219 10.125 25.0469 10.125C29.7219 10.125 32.8969 12.925 33.6219 17.1H27.7719C27.2469 15.925 26.1969 15.25 24.9469 15.25C23.0719 15.25 21.9219 16.775 21.9219 19.125C21.9219 21.475 23.0719 23 24.9469 23C26.1969 23 27.2469 22.325 27.7719 21.15H33.6219C32.8969 25.325 29.7219 28.125 25.0469 28.125C19.6219 28.125 16.2969 24.4 16.2969 19.125Z" fill="#143D59"/>
<path d="M4.84 35.04C4.68533 34.7147 4.46133 34.464 4.168 34.288C3.87467 34.1067 3.53333 34.016 3.144 34.016C2.75467 34.016 2.40267 34.1067 2.088 34.288C1.77867 34.464 1.53333 34.72 1.352 35.056C1.176 35.3867 1.088 35.7707 1.088 36.208C1.088 36.6453 1.176 37.0293 1.352 37.36C1.53333 37.6907 1.77867 37.9467 2.088 38.128C2.40267 38.304 2.75467 38.392 3.144 38.392C3.688 38.392 4.136 38.2293 4.488 37.904C4.84 37.5787 5.04533 37.1387 5.104 36.584H2.88V35.992H5.88V36.552C5.83733 37.0107 5.69333 37.432 5.448 37.816C5.20267 38.1947 4.88 38.496 4.48 38.72C4.08 38.9387 3.63467 39.048 3.144 39.048C2.62667 39.048 2.15467 38.928 1.728 38.688C1.30133 38.4427 0.962667 38.104 0.712 37.672C0.466667 37.24 0.344 36.752 0.344 36.208C0.344 35.664 0.466667 35.176 0.712 34.744C0.962667 34.3067 1.30133 33.968 1.728 33.728C2.15467 33.4827 2.62667 33.36 3.144 33.36C3.736 33.36 4.25867 33.5067 4.712 33.8C5.17067 34.0933 5.504 34.5067 5.712 35.04H4.84ZM10.8426 36.64C10.8426 36.7787 10.8346 36.9253 10.8186 37.08H7.31456C7.34123 37.512 7.4879 37.8507 7.75456 38.096C8.02656 38.336 8.35456 38.456 8.73856 38.456C9.05323 38.456 9.31456 38.384 9.52256 38.24C9.7359 38.0907 9.88523 37.8933 9.97056 37.648H10.7546C10.6372 38.0693 10.4026 38.4133 10.0506 38.68C9.69856 38.9413 9.26123 39.072 8.73856 39.072C8.32256 39.072 7.94923 38.9787 7.61856 38.792C7.29323 38.6053 7.03723 38.3413 6.85056 38C6.6639 37.6533 6.57056 37.2533 6.57056 36.8C6.57056 36.3467 6.66123 35.9493 6.84256 35.608C7.0239 35.2667 7.27723 35.0053 7.60256 34.824C7.93323 34.6373 8.3119 34.544 8.73856 34.544C9.15456 34.544 9.52256 34.6347 9.84256 34.816C10.1626 34.9973 10.4079 35.248 10.5786 35.568C10.7546 35.8827 10.8426 36.24 10.8426 36.64ZM10.0906 36.488C10.0906 36.2107 10.0292 35.9733 9.90656 35.776C9.7839 35.5733 9.6159 35.4213 9.40256 35.32C9.19456 35.2133 8.96256 35.16 8.70656 35.16C8.33856 35.16 8.0239 35.2773 7.76256 35.512C7.50656 35.7467 7.3599 36.072 7.32256 36.488H10.0906ZM12.6915 35.216V37.8C12.6915 38.0133 12.7368 38.1653 12.8275 38.256C12.9182 38.3413 13.0755 38.384 13.2995 38.384H13.8355V39H13.1795C12.7742 39 12.4702 38.9067 12.2675 38.72C12.0648 38.5333 11.9635 38.2267 11.9635 37.8V35.216H11.3955V34.616H11.9635V33.512H12.6915V34.616H13.8355V35.216H12.6915ZM16.5784 36.208C16.5784 35.664 16.701 35.176 16.9464 34.744C17.1917 34.3067 17.525 33.9653 17.9464 33.72C18.373 33.4747 18.845 33.352 19.3624 33.352C19.9704 33.352 20.501 33.4987 20.9544 33.792C21.4077 34.0853 21.7384 34.5013 21.9464 35.04H21.0744C20.9197 34.704 20.6957 34.4453 20.4024 34.264C20.1144 34.0827 19.7677 33.992 19.3624 33.992C18.973 33.992 18.6237 34.0827 18.3144 34.264C18.005 34.4453 17.7624 34.704 17.5864 35.04C17.4104 35.3707 17.3224 35.76 17.3224 36.208C17.3224 36.6507 17.4104 37.04 17.5864 37.376C17.7624 37.7067 18.005 37.9627 18.3144 38.144C18.6237 38.3253 18.973 38.416 19.3624 38.416C19.7677 38.416 20.1144 38.328 20.4024 38.152C20.6957 37.9707 20.9197 37.712 21.0744 37.376H21.9464C21.7384 37.9093 21.4077 38.3227 20.9544 38.616C20.501 38.904 19.9704 39.048 19.3624 39.048C18.845 39.048 18.373 38.928 17.9464 38.688C17.525 38.4427 17.1917 38.104 16.9464 37.672C16.701 37.24 16.5784 36.752 16.5784 36.208ZM22.7581 36.792C22.7581 36.344 22.8487 35.952 23.0301 35.616C23.2114 35.2747 23.4594 35.0107 23.7741 34.824C24.0941 34.6373 24.4487 34.544 24.8381 34.544C25.2221 34.544 25.5554 34.6267 25.8381 34.792C26.1207 34.9573 26.3314 35.1653 26.4701 35.416V34.616H27.2061V39H26.4701V38.184C26.3261 38.44 26.1101 38.6533 25.8221 38.824C25.5394 38.9893 25.2087 39.072 24.8301 39.072C24.4407 39.072 24.0887 38.976 23.7741 38.784C23.4594 38.592 23.2114 38.3227 23.0301 37.976C22.8487 37.6293 22.7581 37.2347 22.7581 36.792ZM26.4701 36.8C26.4701 36.4693 26.4034 36.1813 26.2701 35.936C26.1367 35.6907 25.9554 35.504 25.7261 35.376C25.5021 35.2427 25.2541 35.176 24.9821 35.176C24.7101 35.176 24.4621 35.24 24.2381 35.368C24.0141 35.496 23.8354 35.6827 23.7021 35.928C23.5687 36.1733 23.5021 36.4613 23.5021 36.792C23.5021 37.128 23.5687 37.4213 23.7021 37.672C23.8354 37.9173 24.0141 38.1067 24.2381 38.24C24.4621 38.368 24.7101 38.432 24.9821 38.432C25.2541 38.432 25.5021 38.368 25.7261 38.24C25.9554 38.1067 26.1367 37.9173 26.2701 37.672C26.4034 37.4213 26.4701 37.1307 26.4701 36.8ZM29.1643 35.328C29.2923 35.0773 29.4736 34.8827 29.7083 34.744C29.9483 34.6053 30.239 34.536 30.5803 34.536V35.288H30.3883C29.5723 35.288 29.1643 35.7307 29.1643 36.616V39H28.4363V34.616H29.1643V35.328ZM32.9727 39.072C32.6367 39.072 32.3354 39.016 32.0687 38.904C31.802 38.7867 31.5914 38.6267 31.4367 38.424C31.282 38.216 31.1967 37.9787 31.1807 37.712H31.9327C31.954 37.9307 32.0554 38.1093 32.2367 38.248C32.4234 38.3867 32.666 38.456 32.9647 38.456C33.242 38.456 33.4607 38.3947 33.6207 38.272C33.7807 38.1493 33.8607 37.9947 33.8607 37.808C33.8607 37.616 33.7754 37.4747 33.6047 37.384C33.434 37.288 33.17 37.1947 32.8127 37.104C32.4874 37.0187 32.2207 36.9333 32.0127 36.848C31.81 36.7573 31.634 36.6267 31.4847 36.456C31.3407 36.28 31.2687 36.0507 31.2687 35.768C31.2687 35.544 31.3354 35.3387 31.4687 35.152C31.602 34.9653 31.7914 34.8187 32.0367 34.712C32.282 34.6 32.562 34.544 32.8767 34.544C33.362 34.544 33.754 34.6667 34.0527 34.912C34.3514 35.1573 34.5114 35.4933 34.5327 35.92H33.8047C33.7887 35.6907 33.6954 35.5067 33.5247 35.368C33.3594 35.2293 33.1354 35.16 32.8527 35.16C32.5914 35.16 32.3834 35.216 32.2287 35.328C32.074 35.44 31.9967 35.5867 31.9967 35.768C31.9967 35.912 32.042 36.032 32.1327 36.128C32.2287 36.2187 32.346 36.2933 32.4847 36.352C32.6287 36.4053 32.826 36.4667 33.0767 36.536C33.3914 36.6213 33.6474 36.7067 33.8447 36.792C34.042 36.872 34.21 36.9947 34.3487 37.16C34.4927 37.3253 34.5674 37.5413 34.5727 37.808C34.5727 38.048 34.506 38.264 34.3727 38.456C34.2394 38.648 34.05 38.8 33.8047 38.912C33.5647 39.0187 33.2874 39.072 32.9727 39.072Z" fill="#143D59"/>
</svg>
